#include "pitches.h"

#define DO  262
#define RE  330
#define MI  330
#define FA  349
#define SOL 392
#define LA  440
#define SI  494
#define DO1  525
 


//notes in the melody:
int melody[] = {
  NOTE_E5, NOTE_E3, NOTE_B4, NOTE_C5, NOTE_D5, NOTE_E5, NOTE_D5, NOTE_C5, 
  NOTE_B4, NOTE_A4, NOTE_A3, NOTE_A4, NOTE_C5, NOTE_E5, NOTE_A3, NOTE_D5,
  NOTE_C5, NOTE_B4, NOTE_E4, NOTE_G4, NOTE_C5, NOTE_D5, NOTE_E3, NOTE_E5,
  NOTE_E3, NOTE_C5, NOTE_A3, NOTE_A4, NOTE_A3, NOTE_A4, NOTE_A3, NOTE_B2, 
  NOTE_C3, NOTE_D3, NOTE_D5, NOTE_F5, NOTE_A5, NOTE_C5, NOTE_C5, NOTE_G5, 
  NOTE_F5, NOTE_E5, NOTE_C3, 0, NOTE_C5, NOTE_E5, NOTE_A4, NOTE_G4, NOTE_D5,
  NOTE_C5, NOTE_B4, NOTE_E4, NOTE_B4, NOTE_C5, NOTE_D5, NOTE_G4, NOTE_E5, 
  NOTE_G4, NOTE_C5, NOTE_E4, NOTE_A4, NOTE_E3, NOTE_A4, 0, 
  NOTE_E5, NOTE_E3, NOTE_B4, NOTE_C5, NOTE_D5, NOTE_E5, NOTE_D5, NOTE_C5, 
  NOTE_B4, NOTE_A4, NOTE_A3, NOTE_A4, NOTE_C5, NOTE_E5, NOTE_A3, NOTE_D5,
  NOTE_C5, NOTE_B4, NOTE_E4, NOTE_G4, NOTE_C5, NOTE_D5, NOTE_E3, NOTE_E5,
  NOTE_E3, NOTE_C5, NOTE_A3, NOTE_A4, NOTE_A3, NOTE_A4, NOTE_A3, NOTE_B2, 
  NOTE_C3, NOTE_D3, NOTE_D5, NOTE_F5, NOTE_A5, NOTE_C5, NOTE_C5, NOTE_G5, 
  NOTE_F5, NOTE_E5, NOTE_C3, 0, NOTE_C5, NOTE_E5, NOTE_A4, NOTE_G4, NOTE_D5,
  NOTE_C5, NOTE_B4, NOTE_E4, NOTE_B4, NOTE_C5, NOTE_D5, NOTE_G4, NOTE_E5, 
  NOTE_G4, NOTE_C5, NOTE_E4, NOTE_A4, NOTE_E3, NOTE_A4, 0,
  NOTE_E4, NOTE_E3, NOTE_A2, NOTE_E3, NOTE_C4, NOTE_E3, NOTE_A2, NOTE_E3, 
  NOTE_D4, NOTE_E3, NOTE_GS2, NOTE_E3, NOTE_B3, NOTE_E3, NOTE_GS2, NOTE_E3,
  NOTE_C4, NOTE_E3, NOTE_A2, NOTE_E3, NOTE_A3, NOTE_E3, NOTE_A2, NOTE_E3, 
  NOTE_GS3, NOTE_E3, NOTE_GS2, NOTE_E3, NOTE_B3, NOTE_E3, NOTE_GS2, NOTE_E3, 
  NOTE_E4, NOTE_E3, NOTE_A2, NOTE_E3, NOTE_C4, NOTE_E3, NOTE_A2, NOTE_E3, 
  NOTE_D4, NOTE_E3, NOTE_GS2, NOTE_E3, NOTE_B3, NOTE_E3, NOTE_GS2, NOTE_E3,
  NOTE_C4, NOTE_E3, NOTE_E4, NOTE_E3, NOTE_A4, NOTE_E3, NOTE_A2, NOTE_E3, 
  NOTE_GS4, NOTE_E3, NOTE_GS2, NOTE_E3, NOTE_GS2, NOTE_E3, NOTE_GS2, NOTE_E3,
  NOTE_E5, NOTE_E3, NOTE_B4, NOTE_C5, NOTE_D5, NOTE_E5, NOTE_D5, NOTE_C5, 
  NOTE_B4, NOTE_A4, NOTE_A3, NOTE_A4, NOTE_C5, NOTE_E5, NOTE_A3, NOTE_D5,
  NOTE_C5, NOTE_B4, NOTE_E4, NOTE_G4, NOTE_C5, NOTE_D5, NOTE_E3, NOTE_E5,
  NOTE_E3, NOTE_C5, NOTE_A3, NOTE_A4, NOTE_A3, NOTE_A4, NOTE_A3, NOTE_B2, 
  NOTE_C3, NOTE_D3, NOTE_D5, NOTE_F5, NOTE_A5, NOTE_C5, NOTE_C5, NOTE_G5, 
  NOTE_F5, NOTE_E5, NOTE_C3, 0, NOTE_C5, NOTE_E5, NOTE_A4, NOTE_G4, NOTE_D5,
  NOTE_C5, NOTE_B4, NOTE_E4, NOTE_B4, NOTE_C5, NOTE_D5, NOTE_G4, NOTE_E5, 
  NOTE_G4, NOTE_C5, NOTE_E4, NOTE_A4, NOTE_E3, NOTE_A4, 0, 
  NOTE_E5, NOTE_E3, NOTE_B4, NOTE_C5, NOTE_D5, NOTE_E5, NOTE_D5, NOTE_C5, 
  NOTE_B4, NOTE_A4, NOTE_A3, NOTE_A4, NOTE_C5, NOTE_E5, NOTE_A3, NOTE_D5,
  NOTE_C5, NOTE_B4, NOTE_E4, NOTE_G4, NOTE_C5, NOTE_D5, NOTE_E3, NOTE_E5,
  NOTE_E3, NOTE_C5, NOTE_A3, NOTE_A4, NOTE_A3, NOTE_A4, NOTE_A3, NOTE_B2, 
  NOTE_C3, NOTE_D3, NOTE_D5, NOTE_F5, NOTE_A5, NOTE_C5, NOTE_C5, NOTE_G5, 
  NOTE_F5, NOTE_E5, NOTE_C3, 0, NOTE_C5, NOTE_E5, NOTE_A4, NOTE_G4, NOTE_D5,
  NOTE_C5, NOTE_B4, NOTE_E4, NOTE_B4, NOTE_C5, NOTE_D5, NOTE_G4, NOTE_E5, 
  NOTE_G4, NOTE_C5, NOTE_E4, NOTE_A4, NOTE_E3, NOTE_A4, 0,
  NOTE_E4, NOTE_E3, NOTE_A2, NOTE_E3, NOTE_C4, NOTE_E3, NOTE_A2, NOTE_E3, 
  NOTE_D4, NOTE_E3, NOTE_GS2, NOTE_E3, NOTE_B3, NOTE_E3, NOTE_GS2, NOTE_E3,
  NOTE_C4, NOTE_E3, NOTE_A2, NOTE_E3, NOTE_A3, NOTE_E3, NOTE_A2, NOTE_E3, 
  NOTE_GS3, NOTE_E3, NOTE_GS2, NOTE_E3, NOTE_B3, NOTE_E3, NOTE_GS2, NOTE_E3, 
  NOTE_E4, NOTE_E3, NOTE_A2, NOTE_E3, NOTE_C4, NOTE_E3, NOTE_A2, NOTE_E3, 
  NOTE_D4, NOTE_E3, NOTE_GS2, NOTE_E3, NOTE_B3, NOTE_E3, NOTE_GS2, NOTE_E3,
  NOTE_C4, NOTE_E3, NOTE_E4, NOTE_E3, NOTE_A4, NOTE_E3, NOTE_A2, NOTE_E3, 
  NOTE_GS4, NOTE_E3, NOTE_GS2, NOTE_E3, NOTE_GS2, NOTE_E3, NOTE_GS2, NOTE_E3,
};

//note durations: 4 = quarter note, 8 = eighth note, etc
int noteDurations[] = {
  8,8,8,8,8,16,16,8,8,8,8,8,8,8,8,8,8,8,8,8,8,8,8,8,8,8,8,8,8,8,8,8,8,
  8,4,8,8,16,16,8,8,8,8,8,8,8,16,16,8,8,8,8,8,8,8,8,8,8,8,8,8,8,4,4,
  8,8,8,8,8,16,16,8,8,8,8,8,8,8,8,8,8,8,8,8,8,8,8,8,8,8,8,8,8,8,8,8,8,
  8,4,8,8,16,16,8,8,8,8,8,8,8,16,16,8,8,8,8,8,8,8,8,8,8,8,8,8,8,4,4,
  8,8,8,8,8,8,8,8,8,8,8,8,8,8,8,8,8,8,8,8,8,8,8,8,8,8,8,8,8,8,8,8,
  8,8,8,8,8,8,8,8,8,8,8,8,8,8,8,8,8,8,8,8,8,8,8,8,8,8,8,8,8,8,8,8,
  8,8,8,8,8,16,16,8,8,8,8,8,8,8,8,8,8,8,8,8,8,8,8,8,8,8,8,8,8,8,8,8,8,
  8,4,8,8,16,16,8,8,8,8,8,8,8,16,16,8,8,8,8,8,8,8,8,8,8,8,8,8,8,4,4,
  8,8,8,8,8,16,16,8,8,8,8,8,8,8,8,8,8,8,8,8,8,8,8,8,8,8,8,8,8,8,8,8,8,
  8,4,8,8,16,16,8,8,8,8,8,8,8,16,16,8,8,8,8,8,8,8,8,8,8,8,8,8,8,4,4,
  8,8,8,8,8,8,8,8,8,8,8,8,8,8,8,8,8,8,8,8,8,8,8,8,8,8,8,8,8,8,8,8,
  8,8,8,8,8,8,8,8,8,8,8,8,8,8,8,8,8,8,8,8,8,8,8,8,8,8,8,8,8,8,8,8,
};

int gundulpacul[]
{
  DO,MI,DO,MI,FA,SOL,SOL,SI,DO1,SI,DO1,SI,SOL
};

int gpDurations[]
{
  2,2,2,2,2,2,1,2,2,2,2,2,1
};

void setup(){
  
}

void loop(){
  startMusic();
  delay(100);

  /*press reset to replay. */ }

void startMusic()
{
  //iterate over the notes of the melody:
  for (int thisNote = 0; thisNote < sizeof(gundulpacul) / sizeof(gundulpacul[0]); thisNote++){

    /*
      to calculate the note duration, take one second divided by the note type.
      e.g. quarter note = 1000 / 4, eighth note = 1000/8, etc.
    */
    int noteDuration = 1000/gpDurations[thisNote];
    tone(8, gundulpacul[thisNote],gpDurations);
    
    /*
      to distinguish the notes, set a minimum time between them.
      the note's duration + 30% seems to work well:
     */
    int pauseBetweenNotes = noteDuration * 1.30;
    delay(pauseBetweenNotes);
   
    noTone(8); //stop the tone playing:
  }
  digitalWrite(8,LOW);
}
